<?xml version="1.0" encoding="UTF-8" standalone="no"?> <!-- Created with Vectornator for iOS (http://vectornator.io/) --><!DOCTYPE svg PUBLIC "-//W3C//DTD SVG 1.1//EN" "http://www.w3.org/Graphics/SVG/1.1/DTD/svg11.dtd">
<svg style="fill-rule:evenodd;clip-rule:evenodd;stroke-linecap:round;stroke-linejoin:round;" xmlns:vectornator="http://vectornator.io" xmlns:xlink="http://www.w3.org/1999/xlink" xmlns="http://www.w3.org/2000/svg" xml:space="preserve" version="1.1" viewBox="0 0 512 512">
<metadata>
<vectornator:setting key="DisplayWhiteBackground" value="0"/>
<vectornator:setting key="RulersVisible" value="1"/>
<vectornator:setting key="GridSpacing" value="36"/>
<vectornator:setting key="Units" value="Pixels"/>
<vectornator:setting key="DynamicGuides" value="0"/>
<vectornator:setting key="SnapToPoints" value="0"/>
<vectornator:setting key="CMYKEnabledKey" value="0"/>
<vectornator:setting key="SnapToGrid" value="0"/>
<vectornator:setting key="SnapToGuides" value="1"/>
<vectornator:setting key="SnapToEdges" value="0"/>
</metadata>
<defs/>
<g id="Layer 5" vectornator:layerName="Layer 5">
<path d="M109.493+311.562C110.498+308.545+109.55+300.041+112.53+298.437C114.955+297.131+117.948+300.332+119.472+301.799C125.198+307.313+130.874+310.629+134.876+317.854C138.617+324.609+138.49+333.216+139.649+340.634C140.906+348.682+142.859+356.503+144.313+364.498" opacity="1" fill="#df3c58"/>
<path d="M426.372+319.063C429.743+317.241+426.01+307.03+424.565+305.079C421.688+301.193+402.461+292.018+396.616+293.191C388.656+294.789+383.073+301.993+381.038+309.479C380.395+311.844+379.59+314.701+379.95+317.195C380.057+317.938+380.336+321.55+380.464+320.692" opacity="1" fill="#df3c58"/>
<path d="M427.056+319.209C433.384+294.78+405.4+291.525+398.27+282.38" opacity="1" fill="#df3c58"/>
<path d="M423.954+320.937C424.129+321.14+426.222+318.509+424.673+317.159" opacity="1" fill="#df3c58"/>
</g>
<g id="Layer 1" vectornator:layerName="Layer 1">
<g opacity="1">
<path d="M73.2793+215.951C76.0295+195.9+90.5547+174.711+109.852+169.392C116.329+167.606+135.029+164.022+139.181+157.939" opacity="1" fill="#df3c58"/>
<path stroke="#df3c58" stroke-width="1.66" d="M151.93+150.037C164.43+134.767+162.202+119.512+181.718+110.83C201.234+102.148+223.326+118.986+229.993+115.309" fill="#df3c58" stroke-linecap="round" opacity="1" stroke-linejoin="round"/>
<path stroke="#df3c58" stroke-width="1.66" d="M252.714+113.623C268.116+111.491+294.358+86.7851+318.462+97.1249C342.444+107.412+341.873+142.525+353.627+149.438" fill="#df3c58" stroke-linecap="round" opacity="1" stroke-linejoin="round"/>
<path stroke="#df3c58" stroke-width="1.66" d="M146.571+368.401C141.449+361.724+113.72+366.656+101.31+345.734C88.901+324.812+115.141+304.401+110.139+299.941" fill="#df3c58" stroke-linecap="round" opacity="1" stroke-linejoin="round"/>
<path stroke="#df3c58" stroke-width="1.66" d="M154.769+374.36C167.063+387.24+160.059+423.843+199.221+435.424C233.076+445.436+245.555+414.805+265.179+416.161C284.437+417.491+273.277+398.728+268.93+395.965" fill="#df3c58" stroke-linecap="round" opacity="1" stroke-linejoin="round"/>
<path stroke="#df3c58" stroke-width="1.66" d="M370.741+364.56C358.661+374.477+364.677+411.918+339.918+423.828C315.159+435.738+288.533+410.737+271.122+412.795" fill="#df3c58" stroke-linecap="round" opacity="1" stroke-linejoin="round"/>
<path stroke="#df3c58" stroke-width="1.66" d="M426.086+319.105C419.148+333.027+402.109+336.816+389.996+343.964C386.105+346.26+384.008+351.359+380.165+353.287" fill="#df3c58" stroke-linecap="round" opacity="1" stroke-linejoin="round"/>
<path stroke="#df3c58" stroke-width="1.66" d="M419.088+215.105C418.481+216.323+426.69+194.463+417.539+182.762C408.387+171.06+392.606+171.42+382.759+166.929C374.397+163.115+366.786+159.251+360.362+152.806C357.45+149.884+350.064+152.477+348.097+148.529" fill="#df3c58" stroke-linecap="round" opacity="1" stroke-linejoin="round"/>
<path d="M369.401+122.06L382.403+132.453L362.671+157.301L349.669+146.909L369.401+122.06Z" opacity="1" fill="#df3c58"/>
<path d="M224.496+73.7565L249.825+72.0536L252.714+115.305L227.384+117.008L224.496+73.7565Z" opacity="1" fill="#df3c58"/>
<path d="M117.562+119.384L154.445+151.932L143.889+163.971L107.007+131.423L117.562+119.384Z" opacity="1" fill="#df3c58"/>
<path d="M120.732+392.502L144.425+369.601L150.648+363.586L161.657+375.214L131.741+404.13L120.732+392.502Z" opacity="1" fill="#df3c58"/>
<path d="M260.72+402.7L274.734+401.801L277.78+449.565L263.766+450.465L260.72+402.7Z" opacity="1" fill="#df3c58"/>
<path d="M372.202+333.206L388.023+346.874L427.126+380.657L409.052+401.714L354.129+354.264L372.202+333.206Z" opacity="1" fill="#df3c58"/>
<path d="M422.722+316.065C420.223+312.931+411.993+312.786+407.797+312.195C402.924+311.509+396.752+309.855+392.033+311.858C384.344+315.122+371.426+334.776+376.437+343.826C377.558+345.85+381.699+349.725+384.219+349.003C386.654+348.304+386.302+345.285+388.638+344.113C396.627+340.106+408.237+335.3+415.008+329.356C416.159+328.346+423.718+321.423+419.2+320.776" opacity="1" fill="#df3c58"/>
<path d="M396.393+338.778C400.32+338.778+404.353+334.515+402.766+330.534" opacity="1" fill="#df3c58"/>
<path d="M372.533+362.76C372.6+363.138+367.474+367.574+366.567+368.588C365.999+369.223+363.15+373.858+363.926+372.413" opacity="1" fill="#df3c58"/>
<path stroke="#df3c58" stroke-width="1.66" d="M369.819+364.788C368.534+367.238+360.131+374.98+356.971+375.157C353.543+375.349+350.056+367.838+351.211+365.051C354.154+357.947+365.594+352.39+371.555+347.541" fill="#df3c58" stroke-linecap="round" opacity="1" stroke-linejoin="round"/>
<path stroke="#df3c58" stroke-width="1.66" d="M284.083+410.914C285.897+410.59+280.394+410.831+278.556+410.948C276.062+411.108+269.844+412.447+272.982+407.152C276.572+401.094+286.044+400.812+292.075+400.162C292.792+400.084+299.531+399.293+299.364+401.145" fill="#df3c58" stroke-linecap="round" opacity="1" stroke-linejoin="round"/>
<path stroke="#df3c58" stroke-width="1.66" d="M161.49+378.827C162.442+374.8+154.271+373.502+155.112+369.664C155.618+367.353+162.746+368.353+164.277+368.468C171.423+369.004+179.522+374.097+179.334+381.512" fill="#df3c58" stroke-linecap="round" opacity="1" stroke-linejoin="round"/>
<path stroke="#df3c58" stroke-width="1.66" d="M148.435+369.157C145.078+368.071+143.358+363.777+141.434+361.212C135.257+352.984+131.264+345.363+127.838+335.612C127.372+334.284+122.786+324.852+124.196+324.247C127.749+322.723+133.948+326.727+136.593+328.515C137.105+328.861+142.171+332.554+142.832+333.068C147.993+337.082+152.918+341.39+158.434+344.93C165.091+349.203+173.279+351.308+177.99+357.996" fill="#df3c58" stroke-linecap="round" opacity="1" stroke-linejoin="round"/>
<path stroke="#df3c58" stroke-width="1.66" d="M77.848+207.67C77.1652+205.849+91.8128+189.896+94.7279+187.312C105.881+177.425+119.027+170.621+131.975+163.792C134.777+162.314+138.588+158.856+141.569+158.194C149.376+156.461+158.811+171.679+159.795+176.757C160.931+182.623+160.865+182.208+160.654+188.445C160.388+196.26+158.38+204.736+155.659+211.952C151.854+222.044+147.519+230.179+141.023+238.672" fill="#df3c58" stroke-linecap="round" opacity="1" stroke-linejoin="round"/>
<path stroke="#df3c58" stroke-width="1.66" d="M144.244+160.223C145.653+156.915+149.076+154.905+151.522+152.275C155.542+147.952+159.539+142.503+165.829+141.757C171.212+141.119+177.992+144.108+178.156+150.328C178.424+160.497+169.08+177.998+163.702+185.865" fill="#df3c58" stroke-linecap="round" opacity="1" stroke-linejoin="round"/>
<path stroke="#df3c58" stroke-width="1.66" d="M167.229+142.485C169.066+139.389+173.148+138.386+176.267+136.599C179.866+134.537+183.518+133.067+187.009+130.778C191.356+127.926+195.985+125.272+200.803+123.283C212.362+118.513+231.014+115.204+243.706+115.057C248.718+114.999+255.333+113.705+256.644+116.747C261.129+127.148+248.16+132.204+241.979+136.119C228.791+144.472+211.741+149.847+203.906+164.236C201.326+168.975+199.651+172.875+202.551+177.731" fill="#df3c58" stroke-linecap="round" opacity="1" stroke-linejoin="round"/>
<path stroke="#df3c58" stroke-width="1.66" d="M253.19+114.148C259.011+113.973+267.236+114.076+272.556+116.834C275.001+118.101+277.614+121.754+275.889+124.605C274.234+127.342+271.785+130.331+269.656+132.717C266.916+135.788+265.186+137.435+262.264+139.9" fill="#df3c58" stroke-linecap="round" opacity="1" stroke-linejoin="round"/>
<path stroke="#df3c58" stroke-width="1.66" d="M337.348+137.927C337.276+137.884+337.063+137.752+337.132+137.799C340.73+140.226+344.393+142.559+347.934+145.068C348.445+145.43+354.85+149.609+354.646+151.254C354.033+156.197+337.707+155.548+334.67+156.605" fill="#df3c58" stroke-linecap="round" opacity="1" stroke-linejoin="round"/>
<path d="M104.053+95.9362L104.572+95.9362C115.795+95.9362+124.892+105.064+124.892+116.323L124.892+116.323C124.892+127.582+115.795+136.71+104.572+136.71L104.053+136.71C92.8308+136.71+83.7332+127.582+83.7332+116.323L83.7332+116.323C83.7332+105.064+92.8308+95.9362+104.053+95.9362Z" opacity="1" fill="#df3c58"/>
<path d="M235.34+25.6011L237.18+25.6011C251.438+25.6011+262.997+37.198+262.997+51.5035L262.997+51.5035C262.997+65.8089+251.438+77.4058+237.18+77.4058L235.34+77.4058C221.081+77.4058+209.522+65.8089+209.522+51.5035L209.522+51.5035C209.522+37.198+221.081+25.6011+235.34+25.6011Z" opacity="1" fill="#df3c58"/>
<path d="M389.023+88.1174L389.589+88.1174C402.071+88.1174+412.19+98.2692+412.19+110.792L412.19+110.792C412.19+123.315+402.071+133.467+389.589+133.467L389.023+133.467C376.541+133.467+366.422+123.315+366.422+110.792L366.422+110.792C366.422+98.2692+376.541+88.1174+389.023+88.1174Z" opacity="1" fill="#df3c58"/>
<path d="M439.459+370.865L439.459+370.865C460.125+370.865+476.877+387.963+476.877+409.054L476.877+409.149C476.877+430.24+460.125+447.338+439.459+447.338L439.459+447.338C418.794+447.338+402.041+430.24+402.041+409.149L402.041+409.054C402.041+387.963+418.794+370.865+439.459+370.865Z" opacity="1" fill="#df3c58"/>
<path d="M272.123+447.453L273.013+447.453C283.733+447.453+292.423+456.171+292.423+466.926L292.423+466.926C292.423+477.68+283.733+486.399+273.013+486.399L272.123+486.399C261.404+486.399+252.714+477.68+252.714+466.926L252.714+466.926C252.714+456.171+261.404+447.453+272.123+447.453Z" opacity="1" fill="#df3c58"/>
<path d="M113.579+386.008L113.579+386.008C126.139+386.008+136.322+396.224+136.322+408.825L136.322+408.924C136.322+421.525+126.139+431.741+113.579+431.741L113.579+431.741C101.019+431.741+90.8367+421.525+90.8367+408.924L90.8367+408.825C90.8367+396.224+101.019+386.008+113.579+386.008Z" opacity="1" fill="#df3c58"/>
<path d="M357.411+163.114C359.886+167.253+367.291+165.95+371.428+168.284C386.577+176.834+412.45+189.833+412.45+209.234C412.45+216.732+401.974+226.048+397.608+230.329C384.989+242.702+371.144+252.211+355.762+260.731C352.612+262.475+349.46+264.215+346.279+265.901C344.105+267.054+336.591+271.797+334.735+269.003" opacity="1" fill="#df3c58"/>
<path d="M345.867+148.017C345.867+147.4+347.273+150.389+348.753+151.739C351.493+154.239+353.727+156.616+356.174+159.391C361.444+165.368+373.852+169.079+374.52+177.798C375.519+190.82+347.959+209.045+339.271+216.059C335.073+219.447+331.878+225.986+326.49+225.986" opacity="1" fill="#df3c58"/>
<path d="M349.319+152.594C359.949+147.262+371.692+173.369+369.905+180.538C367.385+190.65+355.238+199.448+348.35+206.416C344.109+210.707+339.852+214.981+335.635+219.295C333.516+221.462+331.811+224.172+329.217+225.734" opacity="1" fill="#df3c58"/>
<path d="M358.159+160.37C360.413+159.548+363.002+160.543+365.304+161.221C383.55+166.59+364.051+184.101+358.159+191.23C355.591+194.336+355.66+194.542+354.405+197.061" opacity="1" fill="#df3c58"/>
<path d="M80.708+205.427C77.6567+207.032+74.4729+215.088+76.0978+216.367C77.5165+217.483+92.1067+219.049+96.4077+219.683C98.2286+219.952+105.822+225.263+107.275+222.377" opacity="1" fill="#df3c58"/>
<path d="M407.16+203.441C407.715+203.302+409.944+202.704+409.903+203.097C408.687+214.652+406.779+226.151+404.247+237.489C403.671+240.066+401.847+242.189+400.647+244.539" opacity="1" fill="#df3c58"/>
<path d="M411.102+201.55C411.674+201.894+412.982+201.934+412.816+202.581C410.345+212.219+407.362+221.763+403.561+230.955C402.833+232.715+400.869+233.646+399.447+234.91C397.864+236.316+386.935+243.416+386.935+239.381" opacity="1" fill="#df3c58"/>
<path d="M413.673+207.052C413.731+206.766+414.004+205.948+413.845+206.193C410.783+210.891+407.588+215.524+404.932+220.465C404.014+222.173+410.821+224.936+412.302+224.936C424.186+224.936+420.509+204.008+412.131+201.206" opacity="1" fill="#df3c58"/>
<path d="M255.394+119.91L259.737+119.91C339.741+119.91+404.597+184.499+404.597+264.175L404.597+264.175C404.597+343.851+339.741+408.44+259.737+408.44L255.394+408.44C175.39+408.44+110.534+343.851+110.534+264.175L110.534+264.175C110.534+184.499+175.39+119.91+255.394+119.91Z" opacity="1" fill="#ffffff"/>
<path d="M256.126+136.355L258.671+136.355C329.422+136.355+386.776+193.251+386.776+263.435L386.776+263.435C386.776+333.619+329.422+390.515+258.671+390.515L256.126+390.515C185.375+390.515+128.021+333.619+128.021+263.435L128.021+263.435C128.021+193.251+185.375+136.355+256.126+136.355Z" opacity="1" fill="#df3c58"/>
<path d="M291.726+152.312L294.455+152.312C305.706+152.312+314.826+161.462+314.826+172.749L314.826+172.749C314.826+184.036+305.706+193.186+294.455+193.186L291.726+193.186C280.475+193.186+271.355+184.036+271.355+172.749L271.355+172.749C271.355+161.462+280.475+152.312+291.726+152.312Z" opacity="1" fill="#ffffff"/>
<path d="M337.404+187.42L337.44+187.42C343.34+187.42+348.123+192.219+348.123+198.138L348.123+198.138C348.123+204.058+343.34+208.857+337.44+208.857L337.404+208.857C331.504+208.857+326.721+204.058+326.721+198.138L326.721+198.138C326.721+192.219+331.504+187.42+337.404+187.42Z" opacity="1" fill="#ffffff"/>
</g>
<path d="M412.618+328.525C420.04+324.802+432.404+320.861+418.879+312.72" opacity="1" fill="#df3c58"/>
<path d="M79.0237+213.045L436.75+213.045C465.422+213.045+488.665+233.109+488.665+257.859L488.665+257.859C488.665+282.61+465.422+302.674+436.75+302.674L79.0237+302.674C50.3521+302.674+27.1092+282.61+27.1092+257.859L27.1092+257.859C27.1092+233.109+50.3521+213.045+79.0237+213.045Z" opacity="1" fill="#6ab09a"/>
</g>
<g id="Layer 4" vectornator:layerName="Layer 4">
<g opacity="1">
<path d="M127.683+278.683L151.106+278.683C153.44+278.683+155.219+279.164+156.446+280.124C157.672+281.084+158.286+282.39+158.286+284.041C158.286+285.511+157.799+286.757+156.827+287.777C155.855+288.797+154.382+289.308+152.407+289.308L119.382+289.308C117.139+289.308+115.389+288.685+114.132+287.439C112.876+286.194+112.248+284.731+112.248+283.05C112.248+281.97+112.652+280.537+113.459+278.751C114.267+276.965+115.149+275.562+116.107+274.542C120.085+270.4+123.675+266.851+126.876+263.895C130.077+260.939+132.365+258.995+133.741+258.065C136.194+256.324+138.236+254.576+139.866+252.82C141.496+251.065+142.738+249.264+143.59+247.418C144.443+245.573+144.869+243.764+144.869+241.994C144.869+240.073+144.413+238.355+143.501+236.839C142.588+235.323+141.347+234.145+139.776+233.305C138.206+232.465+136.493+232.045+134.639+232.045C130.72+232.045+127.639+233.77+125.395+237.222C125.096+237.672+124.595+238.902+123.892+240.913C123.189+242.924+122.396+244.47+121.514+245.55C120.631+246.63+119.337+247.171+117.632+247.171C116.137+247.171+114.895+246.675+113.908+245.685C112.921+244.695+112.427+243.344+112.427+241.633C112.427+239.563+112.891+237.402+113.818+235.151C114.746+232.9+116.129+230.859+117.969+229.028C119.809+227.198+122.142+225.72+124.969+224.594C127.796+223.469+131.109+222.906+134.908+222.906C139.485+222.906+143.388+223.626+146.619+225.067C148.713+226.027+150.553+227.348+152.138+229.028C153.724+230.709+154.958+232.652+155.84+234.858C156.723+237.064+157.164+239.353+157.164+241.723C157.164+245.445+156.244+248.829+154.404+251.875C152.565+254.921+150.687+257.307+148.773+259.033C146.858+260.759+143.65+263.467+139.148+267.159C134.646+270.85+131.557+273.716+129.882+275.757C129.164+276.568+128.431+277.543+127.683+278.683Z" opacity="1" fill="#ffffff"/>
<path d="M195.296+223.311L212.661+223.311C217.178+223.311+221.052+223.731+224.282+224.572C227.513+225.412+230.445+226.988+233.077+229.298C239.927+235.181+243.353+244.124+243.353+256.129C243.353+260.091+243.009+263.707+242.321+266.979C241.633+270.25+240.571+273.199+239.135+275.825C237.699+278.451+235.859+280.799+233.616+282.87C231.851+284.461+229.921+285.736+227.827+286.697C225.733+287.657+223.482+288.332+221.074+288.722C218.666+289.113+215.951+289.308+212.93+289.308L195.565+289.308C193.142+289.308+191.317+288.94+190.091+288.205C188.864+287.469+188.064+286.434+187.69+285.098C187.316+283.763+187.129+282.03+187.129+279.899L187.129+231.504C187.129+228.623+187.772+226.537+189.059+225.247C190.345+223.956+192.424+223.311+195.296+223.311ZM200.456+233.89L200.456+278.683L210.552+278.683C212.766+278.683+214.501+278.623+215.757+278.503C217.013+278.383+218.315+278.083+219.661+277.603C221.007+277.123+222.173+276.447+223.161+275.577C227.618+271.796+229.846+265.283+229.846+256.039C229.846+249.527+228.867+244.65+226.907+241.408C224.948+238.167+222.532+236.104+219.661+235.218C216.789+234.333+213.319+233.89+209.251+233.89L200.456+233.89Z" opacity="1" fill="#ffffff"/>
<path d="M311.728+281.835L308.587+273.551L281.844+273.551L278.703+282.015C277.476+285.316+276.429+287.544+275.562+288.7C274.694+289.855+273.273+290.433+271.299+290.433C269.624+290.433+268.143+289.818+266.857+288.587C265.57+287.357+264.927+285.961+264.927+284.401C264.927+283.5+265.077+282.57+265.376+281.61C265.675+280.649+266.169+279.314+266.857+277.603L283.683+234.746C284.162+233.515+284.738+232.037+285.411+230.311C286.084+228.586+286.802+227.153+287.565+226.012C288.327+224.872+289.33+223.949+290.571+223.244C291.812+222.538+293.345+222.186+295.17+222.186C297.025+222.186+298.573+222.538+299.814+223.244C301.056+223.949+302.058+224.857+302.821+225.967C303.584+227.078+304.227+228.271+304.75+229.546C305.274+230.822+305.939+232.525+306.747+234.656L323.933+277.243C325.279+280.484+325.952+282.84+325.952+284.311C325.952+285.841+325.316+287.244+324.045+288.52C322.773+289.795+321.24+290.433+319.446+290.433C318.399+290.433+317.501+290.246+316.753+289.87C316.005+289.495+315.377+288.985+314.869+288.34C314.36+287.694+313.814+286.704+313.231+285.369C312.648+284.033+312.146+282.855+311.728+281.835ZM285.343+263.512L304.997+263.512L295.08+236.276L285.343+263.512Z" opacity="1" fill="#ffffff"/>
<path d="M362.693+282.285L362.693+261.351L346.629+236.366C345.223+234.115+344.228+232.36+343.645+231.099C343.062+229.839+342.77+228.743+342.77+227.813C342.77+226.282+343.361+224.962+344.542+223.851C345.724+222.741+347.182+222.186+348.917+222.186C350.742+222.186+352.126+222.703+353.068+223.739C354.01+224.774+355.424+226.837+357.308+229.929L369.603+249.962L382.032+229.929C382.78+228.698+383.408+227.663+383.917+226.822C384.425+225.982+384.986+225.194+385.599+224.459C386.213+223.724+386.893+223.161+387.641+222.771C388.389+222.381+389.301+222.186+390.378+222.186C392.053+222.186+393.452+222.733+394.574+223.829C395.695+224.924+396.256+226.192+396.256+227.633C396.256+228.803+395.972+229.974+395.404+231.144C394.835+232.315+393.863+233.935+392.487+236.006L376.019+261.351L376.019+282.285C376.019+285.016+375.391+287.057+374.135+288.407C372.878+289.758+371.278+290.433+369.334+290.433C367.359+290.433+365.759+289.765+364.532+288.43C363.306+287.094+362.693+285.046+362.693+282.285Z" opacity="1" fill="#ffffff"/>
</g>
</g>
<g id="Layer 4 copy" vectornator:layerName="Layer 4 copy" visibility="hidden">
<g opacity="1">
<path d="M119.117+265.12L143.841+265.12C146.304+265.12+148.183+265.625+149.477+266.636C150.772+267.646+151.419+269.02+151.419+270.756C151.419+272.304+150.906+273.614+149.88+274.688C148.854+275.761+147.299+276.298+145.215+276.298L110.355+276.298C107.987+276.298+106.14+275.643+104.814+274.332C103.487+273.022+102.824+271.483+102.824+269.714C102.824+268.578+103.251+267.07+104.103+265.191C104.956+263.313+105.887+261.836+106.898+260.763C111.097+256.405+114.886+252.672+118.265+249.561C121.643+246.451+124.059+244.407+125.511+243.428C128.101+241.596+130.256+239.757+131.976+237.91C133.697+236.063+135.008+234.168+135.908+232.226C136.808+230.285+137.257+228.382+137.257+226.519C137.257+224.498+136.776+222.691+135.813+221.096C134.85+219.502+133.539+218.262+131.882+217.378C130.224+216.494+128.416+216.052+126.459+216.052C122.322+216.052+119.07+217.867+116.702+221.499C116.386+221.972+115.857+223.267+115.115+225.382C114.373+227.498+113.536+229.124+112.605+230.261C111.673+231.398+110.308+231.966+108.508+231.966C106.929+231.966+105.619+231.445+104.577+230.403C103.535+229.361+103.014+227.94+103.014+226.14C103.014+223.962+103.503+221.688+104.482+219.32C105.461+216.952+106.921+214.805+108.863+212.879C110.805+210.952+113.268+209.397+116.252+208.213C119.236+207.029+122.733+206.437+126.743+206.437C131.574+206.437+135.695+207.195+139.105+208.711C141.315+209.721+143.257+211.11+144.93+212.879C146.604+214.647+147.906+216.691+148.838+219.012C149.769+221.333+150.235+223.741+150.235+226.235C150.235+230.15+149.264+233.71+147.322+236.915C145.38+240.12+143.399+242.631+141.378+244.446C139.357+246.262+135.971+249.111+131.219+252.995C126.467+256.879+123.206+259.894+121.438+262.042C120.68+262.894+119.907+263.92+119.117+265.12Z" opacity="1" fill="#ffffff"/>
<path d="M187.884+206.863L206.214+206.863C210.982+206.863+215.071+207.305+218.481+208.19C221.891+209.074+224.985+210.731+227.764+213.163C234.995+219.352+238.61+228.761+238.61+241.391C238.61+245.559+238.247+249.364+237.521+252.806C236.795+256.248+235.674+259.35+234.158+262.113C232.642+264.876+230.701+267.346+228.332+269.525C226.469+271.199+224.433+272.54+222.222+273.551C220.012+274.561+217.636+275.272+215.094+275.682C212.552+276.093+209.687+276.298+206.498+276.298L188.168+276.298C185.611+276.298+183.685+275.911+182.39+275.138C181.095+274.364+180.251+273.275+179.856+271.87C179.461+270.464+179.264+268.641+179.264+266.399L179.264+215.484C179.264+212.452+179.943+210.258+181.301+208.9C182.658+207.542+184.853+206.863+187.884+206.863ZM193.331+217.994L193.331+265.12L203.988+265.12C206.324+265.12+208.156+265.057+209.482+264.931C210.808+264.804+212.181+264.489+213.602+263.984C215.023+263.478+216.255+262.768+217.297+261.852C222.001+257.874+224.354+251.022+224.354+241.297C224.354+234.445+223.32+229.314+221.252+225.903C219.183+222.493+216.634+220.322+213.602+219.391C210.571+218.46+206.908+217.994+202.614+217.994L193.331+217.994Z" opacity="1" fill="#ffffff"/>
<path d="M308.182+268.436L304.867+259.721L276.638+259.721L273.323+268.625C272.028+272.098+270.923+274.443+270.007+275.659C269.092+276.874+267.592+277.482+265.508+277.482C263.74+277.482+262.177+276.835+260.819+275.54C259.461+274.246+258.782+272.777+258.782+271.135C258.782+270.188+258.94+269.209+259.256+268.199C259.572+267.188+260.093+265.783+260.819+263.984L278.58+218.894C279.085+217.599+279.693+216.044+280.404+214.228C281.114+212.413+281.872+210.905+282.677+209.705C283.482+208.505+284.54+207.534+285.85+206.792C287.161+206.05+288.779+205.679+290.705+205.679C292.663+205.679+294.297+206.05+295.607+206.792C296.918+207.534+297.975+208.49+298.781+209.658C299.586+210.826+300.265+212.081+300.817+213.423C301.37+214.765+302.072+216.557+302.925+218.799L321.065+263.605C322.486+267.015+323.196+269.493+323.196+271.041C323.196+272.651+322.525+274.127+321.183+275.469C319.841+276.811+318.223+277.482+316.329+277.482C315.223+277.482+314.276+277.285+313.487+276.89C312.697+276.495+312.034+275.959+311.498+275.28C310.961+274.601+310.385+273.559+309.769+272.154C309.153+270.749+308.624+269.509+308.182+268.436ZM280.333+249.159L301.078+249.159L290.61+220.504L280.333+249.159Z" opacity="1" fill="#ffffff"/>
<path d="M359.377+268.909L359.377+246.885L342.421+220.599C340.937+218.231+339.887+216.383+339.271+215.057C338.656+213.731+338.348+212.579+338.348+211.6C338.348+209.989+338.971+208.6+340.219+207.432C341.466+206.263+343.005+205.679+344.837+205.679C346.763+205.679+348.223+206.224+349.218+207.313C350.212+208.403+351.704+210.574+353.693+213.826L366.671+234.902L379.791+213.826C380.58+212.531+381.243+211.442+381.78+210.558C382.317+209.674+382.909+208.845+383.556+208.071C384.203+207.298+384.922+206.706+385.711+206.295C386.5+205.885+387.464+205.679+388.6+205.679C390.368+205.679+391.845+206.256+393.029+207.408C394.213+208.561+394.805+209.895+394.805+211.41C394.805+212.642+394.505+213.873+393.905+215.105C393.305+216.336+392.279+218.041+390.826+220.22L373.444+246.885L373.444+268.909C373.444+271.783+372.781+273.93+371.455+275.351C370.129+276.772+368.439+277.482+366.387+277.482C364.303+277.482+362.614+276.779+361.319+275.374C360.024+273.969+359.377+271.814+359.377+268.909Z" opacity="1" fill="#ffffff"/>
</g>
</g>
</svg>
