<?xml version="1.0" encoding="UTF-8" standalone="no"?> <!-- Created with Vectornator for iOS (http://vectornator.io/) --><!DOCTYPE svg PUBLIC "-//W3C//DTD SVG 1.1//EN" "http://www.w3.org/Graphics/SVG/1.1/DTD/svg11.dtd">
<svg style="fill-rule:evenodd;clip-rule:evenodd;stroke-linecap:round;stroke-linejoin:round;" xmlns:vectornator="http://vectornator.io" xmlns:xlink="http://www.w3.org/1999/xlink" xmlns="http://www.w3.org/2000/svg" xml:space="preserve" version="1.1" viewBox="0 0 1200 1200">
<metadata>
<vectornator:setting key="DisplayWhiteBackground" value="0"/>
<vectornator:setting key="RulersVisible" value="1"/>
<vectornator:setting key="GridSpacing" value="36"/>
<vectornator:setting key="Units" value="Pixels"/>
<vectornator:setting key="DynamicGuides" value="0"/>
<vectornator:setting key="SnapToPoints" value="0"/>
<vectornator:setting key="SnapToGrid" value="0"/>
<vectornator:setting key="SnapToGuides" value="1"/>
<vectornator:setting key="SnapToEdges" value="0"/>
</metadata>
<defs/>
<g id="Layer 5" vectornator:layerName="Layer 5">
<path d="M145.282+667.282C146.5+663.628+145.352+653.331+148.96+651.388C151.897+649.806+155.522+653.683+157.367+655.46C164.3+662.136+171.174+666.151+176.019+674.901C180.55+683.081+180.395+693.503+181.799+702.485C183.322+712.232+185.687+721.702+187.447+731.384" opacity="1" fill="#df3c58"/>
<path d="M528.702+676.862C532.784+674.655+528.563+661.794+526.813+659.431C523.329+654.726+500.047+643.615+492.969+645.036C483.33+646.971+476.57+655.695+474.104+664.76C473.326+667.623+472.351+671.082+472.787+674.103C472.917+675.003+473.255+679.377+473.41+678.338" opacity="1" fill="#df3c58"/>
<path d="M529.83+676.542C537.492+646.96+503.606+643.019+494.971+631.945" opacity="1" fill="#df3c58"/>
<path d="M526.073+678.635C526.285+678.881+528.819+675.694+526.943+674.06" opacity="1" fill="#df3c58"/>
</g>
<g id="Layer 4" vectornator:layerName="Layer 4">
<path d="M375.382+486.153L1055.26+486.153C1109.75+486.153+1153.93+537.124+1153.93+600L1153.93+600C1153.93+662.876+1109.75+713.847+1055.26+713.847L375.382+713.847C320.89+713.847+276.716+662.876+276.716+600L276.716+600C276.716+537.124+320.89+486.153+375.382+486.153Z" opacity="1" fill="#6ab09a"/>
</g>
<g id="Layer 1" vectornator:layerName="Layer 1">
<g opacity="1">
<path stroke="#df3c58" stroke-width="1.66" d="M101.43+551.504C104.761+527.223+122.35+501.565+145.718+495.123C153.561+492.961+176.205+488.621+181.233+481.255" fill="#df3c58" stroke-linecap="round" opacity="1" stroke-linejoin="round"/>
<path stroke="#df3c58" stroke-width="1.66" d="M196.671+471.686C211.808+453.195+209.11+434.723+232.742+424.209C256.374+413.696+283.126+434.086+291.199+429.632" fill="#df3c58" stroke-linecap="round" opacity="1" stroke-linejoin="round"/>
<path stroke="#df3c58" stroke-width="1.66" d="M318.713+427.592C337.364+425.009+369.141+395.092+398.33+407.613C427.371+420.07+426.678+462.59+440.912+470.961" fill="#df3c58" stroke-linecap="round" opacity="1" stroke-linejoin="round"/>
<path stroke="#df3c58" stroke-width="1.66" d="M190.182+736.11C183.979+728.024+150.401+733.997+135.374+708.662C120.347+683.327+152.122+658.61+146.065+653.21" fill="#df3c58" stroke-linecap="round" opacity="1" stroke-linejoin="round"/>
<path stroke="#df3c58" stroke-width="1.66" d="M200.109+743.325C214.995+758.923+206.515+803.246+253.937+817.27C294.934+829.394+310.045+792.302+333.807+793.944C357.128+795.554+343.614+772.834+338.35+769.488" fill="#df3c58" stroke-linecap="round" opacity="1" stroke-linejoin="round"/>
<path stroke="#df3c58" stroke-width="1.66" d="M461.636+731.459C447.008+743.468+454.293+788.806+424.312+803.228C394.33+817.65+362.088+787.376+341.004+789.868" fill="#df3c58" stroke-linecap="round" opacity="1" stroke-linejoin="round"/>
<path stroke="#df3c58" stroke-width="1.66" d="M528.655+676.415C520.253+693.274+499.62+697.862+484.952+706.519C480.241+709.299+477.701+715.473+473.048+717.808" fill="#df3c58" stroke-linecap="round" opacity="1" stroke-linejoin="round"/>
<path stroke="#df3c58" stroke-width="1.66" d="M520.181+550.48C519.446+551.954+529.387+525.483+518.305+511.313C507.223+497.144+488.113+497.579+476.189+492.141C466.063+487.523+456.847+482.843+449.067+475.039C445.541+471.501+436.598+474.641+434.215+469.86" fill="#df3c58" stroke-linecap="round" opacity="1" stroke-linejoin="round"/>
<path stroke="#df3c58" stroke-width="1.66" d="M460.013+437.808L475.757+450.393L451.863+480.483L436.119+467.898L460.013+437.808Z" fill="#df3c58" stroke-linecap="round" opacity="1" stroke-linejoin="round"/>
<path stroke="#df3c58" stroke-width="1.66" d="M284.543+379.316L315.215+377.254L318.713+429.628L288.041+431.69L284.543+379.316Z" fill="#df3c58" stroke-linecap="round" opacity="1" stroke-linejoin="round"/>
<path stroke="#df3c58" stroke-width="1.66" d="M155.053+434.567L199.716+473.981L186.934+488.56L142.272+449.146L155.053+434.567Z" fill="#df3c58" stroke-linecap="round" opacity="1" stroke-linejoin="round"/>
<path stroke="#df3c58" stroke-width="1.66" d="M158.892+765.295L187.583+737.563L195.119+730.279L208.45+744.36L172.223+779.375L158.892+765.295Z" fill="#df3c58" stroke-linecap="round" opacity="1" stroke-linejoin="round"/>
<path stroke="#df3c58" stroke-width="1.66" d="M328.408+777.644L345.378+776.555L349.067+834.394L332.097+835.483L328.408+777.644Z" fill="#df3c58" stroke-linecap="round" opacity="1" stroke-linejoin="round"/>
<path stroke="#df3c58" stroke-width="1.66" d="M463.406+693.492L482.563+710.042L529.914+750.951L508.028+776.45L441.52+718.991L463.406+693.492Z" fill="#df3c58" stroke-linecap="round" opacity="1" stroke-linejoin="round"/>
<path stroke="#df3c58" stroke-width="1.66" d="M524.581+672.734C521.555+668.94+511.589+668.764+506.508+668.048C500.608+667.217+493.133+665.215+487.419+667.641C478.108+671.593+462.465+695.392+468.534+706.351C469.891+708.802+474.906+713.494+477.956+712.62C480.906+711.774+480.48+708.118+483.308+706.699C492.982+701.846+507.041+696.027+515.24+688.829C516.633+687.606+525.788+679.223+520.317+678.439" fill="#df3c58" stroke-linecap="round" opacity="1" stroke-linejoin="round"/>
<path stroke="#df3c58" stroke-width="1.66" d="M492.699+700.239C497.454+700.239+502.338+695.077+500.416+690.255" fill="#df3c58" stroke-linecap="round" opacity="1" stroke-linejoin="round"/>
<path stroke="#df3c58" stroke-width="1.66" d="M463.806+729.279C463.888+729.736+457.68+735.108+456.581+736.336C455.893+737.105+452.443+742.717+453.383+740.968" fill="#df3c58" stroke-linecap="round" opacity="1" stroke-linejoin="round"/>
<path stroke="#df3c58" stroke-width="1.66" d="M460.519+731.735C458.963+734.701+448.788+744.077+444.962+744.291C440.811+744.524+436.587+735.428+437.986+732.053C441.55+723.451+455.403+716.722+462.621+710.85" fill="#df3c58" stroke-linecap="round" opacity="1" stroke-linejoin="round"/>
<path stroke="#df3c58" stroke-width="1.66" d="M356.699+787.59C358.896+787.198+352.232+787.489+350.006+787.632C346.986+787.825+339.456+789.447+343.256+783.035C347.603+775.699+359.073+775.357+366.377+774.57C367.245+774.476+375.405+773.518+375.203+775.761" fill="#df3c58" stroke-linecap="round" opacity="1" stroke-linejoin="round"/>
<path stroke="#df3c58" stroke-width="1.66" d="M208.247+748.735C209.4+743.859+199.506+742.287+200.524+737.64C201.137+734.841+209.769+736.051+211.622+736.19C220.275+736.841+230.083+743.007+229.855+751.987" fill="#df3c58" stroke-linecap="round" opacity="1" stroke-linejoin="round"/>
<path stroke="#df3c58" stroke-width="1.66" d="M192.439+737.026C188.373+735.71+186.291+730.51+183.961+727.405C176.481+717.441+171.645+708.212+167.498+696.405C166.933+694.797+161.379+683.375+163.087+682.643C167.39+680.797+174.896+685.646+178.099+687.81C178.719+688.23+184.853+692.701+185.654+693.324C191.903+698.185+197.867+703.401+204.547+707.689C212.608+712.862+222.523+715.411+228.227+723.51" fill="#df3c58" stroke-linecap="round" opacity="1" stroke-linejoin="round"/>
<path stroke="#df3c58" stroke-width="1.66" d="M106.963+541.476C106.136+539.27+123.873+519.952+127.403+516.823C140.908+504.852+156.828+496.612+172.507+488.342C175.9+486.552+180.515+482.365+184.124+481.564C193.578+479.465+205.003+497.893+206.194+504.042C207.571+511.146+207.491+510.643+207.235+518.196C206.913+527.66+204.481+537.922+201.187+546.661C196.579+558.882+191.329+568.732+183.463+579.017" fill="#df3c58" stroke-linecap="round" opacity="1" stroke-linejoin="round"/>
<path stroke="#df3c58" stroke-width="1.66" d="M187.363+484.021C189.069+480.014+193.215+477.581+196.177+474.396C201.045+469.161+205.884+462.563+213.501+461.66C220.02+460.887+228.23+464.506+228.429+472.039C228.754+484.353+217.439+505.545+210.926+515.072" fill="#df3c58" stroke-linecap="round" opacity="1" stroke-linejoin="round"/>
<path stroke="#df3c58" stroke-width="1.66" d="M215.197+462.541C217.422+458.792+222.364+457.578+226.141+455.414C230.499+452.916+234.922+451.137+239.149+448.365C244.413+444.911+250.018+441.697+255.853+439.289C269.849+433.513+292.436+429.506+307.805+429.328C313.874+429.258+321.885+427.691+323.473+431.374C328.903+443.969+313.199+450.092+305.715+454.832C289.745+464.947+269.098+471.456+259.611+488.88C256.486+494.618+254.458+499.342+257.97+505.221" fill="#df3c58" stroke-linecap="round" opacity="1" stroke-linejoin="round"/>
<path stroke="#df3c58" stroke-width="1.66" d="M319.29+428.227C326.339+428.015+336.298+428.14+342.741+431.479C345.701+433.014+348.866+437.437+346.777+440.89C344.772+444.205+341.807+447.824+339.229+450.713C335.911+454.431+333.817+456.426+330.277+459.411" fill="#df3c58" stroke-linecap="round" opacity="1" stroke-linejoin="round"/>
<path stroke="#df3c58" stroke-width="1.66" d="M421.2+457.022C421.112+456.97+420.854+456.81+420.938+456.867C425.295+459.805+429.73+462.63+434.018+465.669C434.638+466.107+442.393+471.168+442.146+473.159C441.404+479.146+421.634+478.36+417.957+479.639" fill="#df3c58" stroke-linecap="round" opacity="1" stroke-linejoin="round"/>
<path stroke="#df3c58" stroke-width="1.66" d="M138.695+406.174L139.324+406.174C152.913+406.174+163.93+417.226+163.93+430.861L163.93+430.861C163.93+444.495+152.913+455.547+139.324+455.547L138.695+455.547C125.106+455.547+114.089+444.495+114.089+430.861L114.089+430.861C114.089+417.226+125.106+406.174+138.695+406.174Z" fill="#df3c58" stroke-linecap="round" opacity="1" stroke-linejoin="round"/>
<path stroke="#df3c58" stroke-width="1.66" d="M297.675+321.003L299.902+321.003C317.169+321.003+331.166+335.046+331.166+352.369L331.166+352.369C331.166+369.692+317.169+383.735+299.902+383.735L297.675+383.735C280.408+383.735+266.411+369.692+266.411+352.369L266.411+352.369C266.411+335.046+280.408+321.003+297.675+321.003Z" fill="#df3c58" stroke-linecap="round" opacity="1" stroke-linejoin="round"/>
<path stroke="#df3c58" stroke-width="1.66" d="M483.774+396.706L484.46+396.706C499.575+396.706+511.828+408.999+511.828+424.163L511.828+424.163C511.828+439.328+499.575+451.621+484.46+451.621L483.774+451.621C468.66+451.621+456.407+439.328+456.407+424.163L456.407+424.163C456.407+408.999+468.66+396.706+483.774+396.706Z" fill="#df3c58" stroke-linecap="round" opacity="1" stroke-linejoin="round"/>
<path stroke="#df3c58" stroke-width="1.66" d="M544.849+739.094L544.849+739.094C569.874+739.094+590.16+759.798+590.16+785.338L590.16+785.453C590.16+810.993+569.874+831.697+544.849+831.697L544.849+831.697C519.825+831.697+499.538+810.993+499.538+785.453L499.538+785.338C499.538+759.798+519.825+739.094+544.849+739.094Z" fill="#df3c58" stroke-linecap="round" opacity="1" stroke-linejoin="round"/>
<path stroke="#df3c58" stroke-width="1.66" d="M342.217+831.836L343.294+831.836C356.275+831.836+366.798+842.393+366.798+855.417L366.798+855.417C366.798+868.44+356.275+878.997+343.294+878.997L342.217+878.997C329.236+878.997+318.713+868.44+318.713+855.417L318.713+855.417C318.713+842.393+329.236+831.836+342.217+831.836Z" fill="#df3c58" stroke-linecap="round" opacity="1" stroke-linejoin="round"/>
<path stroke="#df3c58" stroke-width="1.66" d="M150.231+757.431L150.231+757.431C165.44+757.431+177.77+769.801+177.77+785.061L177.77+785.18C177.77+800.44+165.44+812.81+150.231+812.81L150.231+812.81C135.021+812.81+122.691+800.44+122.691+785.18L122.691+785.061C122.691+769.801+135.021+757.431+150.231+757.431Z" fill="#df3c58" stroke-linecap="round" opacity="1" stroke-linejoin="round"/>
<path stroke="#df3c58" stroke-width="1.66" d="M445.494+487.522C448.491+492.534+457.459+490.955+462.468+493.783C480.812+504.135+512.143+519.876+512.143+543.369C512.143+552.449+499.457+563.731+494.17+568.914C478.889+583.897+462.124+595.411+443.497+605.729C439.683+607.841+435.866+609.948+432.014+611.99C429.381+613.385+420.283+619.128+418.036+615.746" fill="#df3c58" stroke-linecap="round" opacity="1" stroke-linejoin="round"/>
<path stroke="#df3c58" stroke-width="1.66" d="M431.515+469.24C431.515+468.493+433.218+472.113+435.01+473.747C438.328+476.774+441.033+479.653+443.996+483.014C450.378+490.251+465.403+494.745+466.213+505.303C467.422+521.072+434.049+543.141+423.527+551.634C418.444+555.737+414.575+563.655+408.051+563.655" fill="#df3c58" stroke-linecap="round" opacity="1" stroke-linejoin="round"/>
<path stroke="#df3c58" stroke-width="1.66" d="M435.695+474.783C448.567+468.326+462.787+499.94+460.624+508.621C457.573+520.866+442.863+531.519+434.522+539.957C429.386+545.153+424.231+550.328+419.125+555.552C416.559+558.177+414.494+561.459+411.353+563.35" fill="#df3c58" stroke-linecap="round" opacity="1" stroke-linejoin="round"/>
<path stroke="#df3c58" stroke-width="1.66" d="M446.4+484.199C449.129+483.203+452.265+484.409+455.052+485.229C477.147+491.731+453.535+512.935+446.4+521.567C443.291+525.329+443.374+525.579+441.854+528.629" fill="#df3c58" stroke-linecap="round" opacity="1" stroke-linejoin="round"/>
<path stroke="#df3c58" stroke-width="1.66" d="M110.426+538.76C106.731+540.703+102.876+550.459+104.843+552.007C106.561+553.359+124.229+555.255+129.437+556.023C131.642+556.348+140.837+562.779+142.596+559.285" fill="#df3c58" stroke-linecap="round" opacity="1" stroke-linejoin="round"/>
<path stroke="#df3c58" stroke-width="1.66" d="M505.737+536.355C506.408+536.187+509.108+535.462+509.058+535.938C507.586+549.931+505.275+563.855+502.209+577.585C501.512+580.705+499.303+583.276+497.85+586.122" fill="#df3c58" stroke-linecap="round" opacity="1" stroke-linejoin="round"/>
<path stroke="#df3c58" stroke-width="1.66" d="M510.511+534.064C511.203+534.481+512.787+534.53+512.586+535.314C509.593+546.984+505.982+558.541+501.379+569.672C500.497+571.803+498.119+572.931+496.397+574.461C494.481+576.164+481.246+584.762+481.246+579.875" fill="#df3c58" stroke-linecap="round" opacity="1" stroke-linejoin="round"/>
<path stroke="#df3c58" stroke-width="1.66" d="M513.624+540.728C513.693+540.381+514.025+539.39+513.832+539.687C510.123+545.377+506.256+550.986+503.039+556.97C501.928+559.037+510.17+562.384+511.964+562.384C526.354+562.384+521.902+537.041+511.756+533.648" fill="#df3c58" stroke-linecap="round" opacity="1" stroke-linejoin="round"/>
<path stroke="#df3c58" stroke-width="1.66" d="M321.958+435.204L327.218+435.204C424.098+435.204+502.634+513.418+502.634+609.899L502.634+609.899C502.634+706.381+424.098+784.595+327.218+784.595L321.958+784.595C225.079+784.595+146.543+706.381+146.543+609.899L146.543+609.899C146.543+513.418+225.079+435.204+321.958+435.204Z" fill="#ffffff" stroke-linecap="round" opacity="1" stroke-linejoin="round"/>
<path stroke="#df3c58" stroke-width="1.66" d="M322.845+455.118L325.927+455.118C411.601+455.118+481.054+524.015+481.054+609.003L481.054+609.003C481.054+693.992+411.601+762.888+325.927+762.888L322.845+762.888C237.171+762.888+167.718+693.992+167.718+609.003L167.718+609.003C167.718+524.015+237.171+455.118+322.845+455.118Z" fill="#df3c58" stroke-linecap="round" opacity="1" stroke-linejoin="round"/>
<path stroke="#df3c58" stroke-width="1.66" d="M365.954+474.441L369.259+474.441C382.883+474.441+393.927+485.521+393.927+499.189L393.927+499.189C393.927+512.857+382.883+523.937+369.259+523.937L365.954+523.937C352.33+523.937+341.286+512.857+341.286+499.189L341.286+499.189C341.286+485.521+352.33+474.441+365.954+474.441Z" fill="#ffffff" stroke-linecap="round" opacity="1" stroke-linejoin="round"/>
<path stroke="#df3c58" stroke-width="1.66" d="M421.267+516.954L421.311+516.954C428.456+516.954+434.248+522.765+434.248+529.934L434.248+529.934C434.248+537.102+428.456+542.913+421.311+542.913L421.267+542.913C414.122+542.913+408.33+537.102+408.33+529.934L408.33+529.934C408.33+522.765+414.122+516.954+421.267+516.954Z" fill="#ffffff" stroke-linecap="round" opacity="1" stroke-linejoin="round"/>
</g>
<path stroke="#df3c58" stroke-width="1" d="M102.491+549.996C101.984+572.039+107.071+590.742+124.772+607.093C133.463+615.122+139.375+613.817+145.836+623.625C145.836+623.625+149.414+640.16+149.538+645.26C149.681+651.206+153.742+656.793+150.11+658.815L149.493+658.506C149.748+657.434+136.769+673.964+138.638+671.268C141.507+667.128+145.042+661.916+145.486+645.565C145.954+628.322+130.988+619.525+117.615+603.814C103.457+587.182+98.6481+570.077+101.228+549.54" fill="#df3c58" stroke-linecap="butt" opacity="1" stroke-linejoin="round"/>
<path stroke="#df3c58" stroke-width="1" d="M103.773+546.433C103.029+545.887+102.046+552.395+101.92+553.76C101.218+561.334+102.812+568.992+104.584+576.372C109.062+595.017+123.751+605.368+137.543+617.213C139.443+618.845+143.128+628.132+144.798+628.153C148.766+628.203+145.97+611.884+145.97+611.884C145.97+611.884+146.263+595.044+147.823+587.193C149.506+578.73+149.792+570.59+150.319+562.027C150.54+558.441+152.033+554.962+152.06+551.332C152.09+547.234+150.637+542.66+149.069+538.926C149.014+538.796+148.792+538.663+148.876+538.55C149.301+537.97+149.853+539.619+150.219+540.239C151.396+542.234+153.571+543.346+154.778+545.226C155.101+545.729+156.508+548.96+154.747+547.668" fill="#df3c58" stroke-linecap="butt" opacity="1" stroke-linejoin="round"/>
<path stroke="#df3c58" stroke-width="1" d="M145.942+575.836C149.042+572.465+150.218+567.726+152.038+563.523C154.847+557.041+151.887+552.951+148.274+547.851" fill="#df3c58" stroke-linecap="butt" opacity="1" stroke-linejoin="round"/>
<path stroke="#df3c58" stroke-width="1" d="M142.947+584.177C145.614+578.741+153.722+562.963+151.443+554.267" fill="#df3c58" stroke-linecap="butt" opacity="1" stroke-linejoin="round"/>
<path stroke="#6ab09a" stroke-width="1.66" d="M528.025+518.767C526.934+523.679+527.321+528.892+526.238+533.877C521.963+553.54+514.228+562.91+519.901+584.731C521.748+591.835+529.165+596.755+535.336+599.841C536.306+600.326+541.467+602.735+541.998+601.141" fill="#6ab09a" stroke-linecap="round" opacity="1" stroke-linejoin="round"/>
<path stroke="#6ab09a" stroke-width="1.66" d="M526.618+522.225C525.12+528.217+525.367+534.344+523.212+540.272C519.962+549.209+512.214+558.993+514.877+568.756C516.463+574.572+521.074+578.432+525.096+582.454C526.335+583.693+528.58+584.421+529.372+586.006" fill="#6ab09a" stroke-linecap="round" opacity="1" stroke-linejoin="round"/>
<path stroke="#6ab09a" stroke-width="1.66" d="M520.597+550.061C520.597+549.981+520.643+549.755+520.597+549.821C519.305+551.664+517.75+553.371+516.833+555.427C515.193+559.105+513.923+562.963+512.989+566.88C511.502+573.117+510.746+580.336+511.947+586.743" fill="#6ab09a" stroke-linecap="round" opacity="1" stroke-linejoin="round"/>
<path stroke="#6ab09a" stroke-width="1.66" d="M519.076+551.583C514.317+560.386+511.799+570.25+510.826+580.175" fill="#6ab09a" stroke-linecap="round" opacity="1" stroke-linejoin="round"/>
<path stroke="#6ab09a" stroke-width="1.66" d="M517.991+553.345C517.991+553.26+518.028+553.013+517.991+553.09C516.532+556.138+514.694+559.047+513.715+562.28C512.549+566.128+511.423+570.236+511.991+574.216" fill="#6ab09a" stroke-linecap="round" opacity="1" stroke-linejoin="round"/>
<path stroke="#6ab09a" stroke-width="1.66" d="M517.48+553.792C517.395+553.792+517.261+553.715+517.225+553.792C515.814+556.802+514.359+559.801+513.204+562.919C512.419+565.038+512.28+566.287+512.055+568.088" fill="#df3c58" stroke-linecap="round" opacity="1" stroke-linejoin="round"/>
<path stroke="#df3c58" stroke-width="1.66" d="M513.787+555.761C510.549+568.71+507.716+586.244+507.716+600C507.716+608.246+511.85+622.333+511.85+622.333C511.85+622.333+503.518+602.862+503.265+601.469C501.666+592.676+500.531+580.03+502.23+571.112C503.302+565.485+506.167+560.392+508.698+555.33" fill="#df3c58" stroke-linecap="round" opacity="1" stroke-linejoin="round"/>
<path stroke="#df3c58" stroke-width="1.66" d="M499.643+567.748C498.769+566.874+499.478+570.223+499.557+571.457C499.639+572.752+500.24+576.023+501.54+576.89C502.72+577.677+503.939+575.016+504.3+574.475" fill="#df3c58" stroke-linecap="round" opacity="1" stroke-linejoin="round"/>
<path stroke="#df3c58" stroke-width="1.66" d="M528.635+676.928C530.393+671.654+533.673+662.433+527.835+649.724C523.947+641.261+516.059+634.339+513.082+625.407C512.557+623.833+511.859+622.321+511.129+620.814C509.823+618.119+508.416+615.436+507.716+612.428C507.139+609.948+508.071+606.661+507.689+604.244C507.426+602.577+507.254+600.903+507.081+599.229C506.907+597.542+506.734+595.854+506.468+594.172C506.443+594.011+506.427+593.171+505.96+593.358C505.039+593.726+503.126+608.366+502.907+610.552C501.794+621.688+501.651+632.571+500.059+643.721C498.872+652.029+494.768+660.519+494.768+668.851" fill="#df3c58" stroke-linecap="round" opacity="1" stroke-linejoin="round"/>
<path stroke="#df3c58" stroke-width="1.66" d="M518.271+672.209C517.329+676.919+520.486+685.648+526.105+680.654C529.613+677.535+524.76+671.996+524.172+669.055" fill="#df3c58" stroke-linecap="round" opacity="1" stroke-linejoin="round"/>
<path stroke="#df3c58" stroke-width="1.66" d="M507.716+595.793L530.692+595.793L530.692+608.724L507.716+608.724L507.716+595.793Z" fill="#df3c58" stroke-linecap="round" opacity="1" stroke-linejoin="round"/>
<path stroke="#df3c58" stroke-width="1.66" d="M548.677+581.404L548.86+581.404C560.352+581.404+569.668+590.721+569.668+602.213L569.668+602.213C569.668+613.705+560.352+623.021+548.86+623.021L548.677+623.021C537.185+623.021+527.869+613.705+527.869+602.213L527.869+602.213C527.869+590.721+537.185+581.404+548.677+581.404Z" fill="#df3c58" stroke-linecap="round" opacity="1" stroke-linejoin="round"/>
<path stroke="#df3c58" stroke-width="1.66" d="M94.1441+632.467L144.125+623.873C144.564+623.798+144.981+624.092+145.056+624.531L149.572+650.798C149.648+651.237+149.353+651.654+148.914+651.729L98.9337+660.323C98.4948+660.398+98.0777+660.104+98.0023+659.665L93.486+633.398C93.4105+632.959+93.7051+632.542+94.1441+632.467Z" fill="#df3c58" stroke-linecap="round" opacity="1" stroke-linejoin="round"/>
<path stroke="#df3c58" stroke-width="1.66" d="M77.0399+607.193L77.0399+607.193C53.8594+607.193+35.0679+625.984+35.0679+649.165L35.0679+651.089C35.0679+674.269+53.8594+693.061+77.0399+693.061L77.0399+693.061C100.22+693.061+119.012+674.269+119.012+651.089L119.012+649.165C119.012+625.984+100.22+607.193+77.0399+607.193Z" fill="#df3c58" stroke-linecap="round" opacity="1" stroke-linejoin="round"/>
<g opacity="1">
<path d="M608.742+649.837L659.491+649.837C664.547+649.837+668.403+650.877+671.061+652.958C673.718+655.039+675.047+657.868+675.047+661.444C675.047+664.63+673.993+667.329+671.887+669.54C669.781+671.751+666.588+672.856+662.311+672.856L590.756+672.856C585.895+672.856+582.104+671.507+579.381+668.808C576.659+666.11+575.298+662.94+575.298+659.298C575.298+656.957+576.173+653.852+577.923+649.983C579.673+646.114+581.585+643.074+583.659+640.863C592.279+631.89+600.057+624.2+606.992+617.795C613.927+611.39+618.885+607.18+621.867+605.164C627.182+601.392+631.605+597.605+635.138+593.8C638.67+589.996+641.36+586.095+643.207+582.096C645.054+578.097+645.978+574.179+645.978+570.342C645.978+566.181+644.989+562.458+643.012+559.174C641.036+555.89+638.346+553.338+634.943+551.517C631.54+549.696+627.83+548.786+623.811+548.786C615.321+548.786+608.645+552.525+603.784+560.003C603.136+560.979+602.05+563.645+600.527+568.001C599.004+572.358+597.286+575.707+595.374+578.048C593.462+580.389+590.659+581.559+586.965+581.559C583.724+581.559+581.034+580.486+578.895+578.341C576.756+576.195+575.687+573.268+575.687+569.562C575.687+565.075+576.692+560.393+578.701+555.516C580.71+550.639+583.708+546.218+587.694+542.251C591.68+538.284+596.735+535.082+602.86+532.643C608.985+530.205+616.163+528.986+624.395+528.986C634.311+528.986+642.769+530.546+649.769+533.668C654.306+535.748+658.292+538.61+661.727+542.251C665.163+545.892+667.836+550.103+669.748+554.882C671.66+559.662+672.616+564.62+672.616+569.757C672.616+577.82+670.623+585.152+666.637+591.752C662.651+598.352+658.584+603.522+654.436+607.261C650.288+611+643.336+616.869+633.582+624.867C623.828+632.865+617.135+639.075+613.506+643.497C611.95+645.252+610.362+647.366+608.742+649.837Z" opacity="1" fill="#ffffff"/>
<path d="M727.272+529.863L764.896+529.863C774.683+529.863+783.077+530.774+790.076+532.595C797.076+534.415+803.428+537.829+809.132+542.836C823.974+555.581+831.395+574.959+831.395+600.97C831.395+609.553+830.65+617.389+829.159+624.477C827.668+631.564+825.368+637.953+822.257+643.643C819.145+649.333+815.159+654.421+810.298+658.908C806.474+662.354+802.294+665.118+797.757+667.199C793.22+669.28+788.343+670.743+783.125+671.588C777.908+672.433+772.026+672.856+765.48+672.856L727.855+672.856C722.605+672.856+718.652+672.06+715.994+670.466C713.337+668.873+711.603+666.63+710.793+663.736C709.983+660.842+709.578+657.087+709.578+652.47L709.578+547.616C709.578+541.373+710.971+536.854+713.758+534.058C716.545+531.262+721.05+529.863+727.272+529.863ZM738.452+552.785L738.452+649.837L760.327+649.837C765.123+649.837+768.882+649.707+771.605+649.447C774.327+649.187+777.146+648.536+780.063+647.496C782.979+646.455+785.507+644.992+787.646+643.107C797.303+634.913+802.132+620.803+802.132+600.775C802.132+586.664+800.009+576.097+795.764+569.074C791.519+562.051+786.285+557.581+780.063+555.663C773.841+553.744+766.322+552.785+757.507+552.785L738.452+552.785Z" opacity="1" fill="#ffffff"/>
<path d="M951.578+656.665L944.772+638.717L886.829+638.717L880.023+657.055C877.366+664.208+875.097+669.036+873.218+671.539C871.338+674.043+868.26+675.295+863.982+675.295C860.352+675.295+857.144+673.962+854.357+671.295C851.57+668.629+850.177+665.606+850.177+662.224C850.177+660.274+850.501+658.258+851.149+656.177C851.797+654.096+852.866+651.202+854.357+647.496L890.815+554.638C891.852+551.972+893.099+548.77+894.558+545.031C896.016+541.292+897.572+538.187+899.224+535.716C900.877+533.245+903.048+531.245+905.738+529.717C908.428+528.189+911.75+527.425+915.703+527.425C919.722+527.425+923.076+528.189+925.766+529.717C928.455+531.245+930.627+533.212+932.279+535.618C933.932+538.024+935.326+540.609+936.46+543.373C937.594+546.136+939.036+549.827+940.786+554.443L978.022+646.716C980.938+653.738+982.397+658.843+982.397+662.029C982.397+665.346+981.019+668.386+978.265+671.149C975.51+673.913+972.189+675.295+968.3+675.295C966.031+675.295+964.087+674.888+962.467+674.075C960.846+673.262+959.485+672.157+958.383+670.759C957.281+669.361+956.099+667.215+954.835+664.321C953.571+661.428+952.485+658.875+951.578+656.665ZM894.412+616.966L936.995+616.966L915.509+557.955L894.412+616.966Z" opacity="1" fill="#ffffff"/>
<path d="M1034.04+657.64L1034.04+612.284L999.234+558.15C996.187+553.273+994.032+549.469+992.768+546.738C991.505+544.007+990.873+541.633+990.873+539.617C990.873+536.301+992.153+533.44+994.713+531.034C997.273+528.628+1000.43+527.425+1004.19+527.425C1008.15+527.425+1011.14+528.547+1013.18+530.79C1015.23+533.034+1018.29+537.504+1022.37+544.202L1049.01+587.607L1075.94+544.202C1077.56+541.536+1078.92+539.292+1080.02+537.472C1081.13+535.651+1082.34+533.944+1083.67+532.351C1085+530.758+1086.47+529.538+1088.09+528.693C1089.71+527.848+1091.69+527.425+1094.02+527.425C1097.65+527.425+1100.68+528.612+1103.11+530.985C1105.54+533.359+1106.76+536.106+1106.76+539.227C1106.76+541.763+1106.14+544.299+1104.91+546.835C1103.68+549.371+1101.57+552.883+1098.59+557.37L1062.91+612.284L1062.91+657.64C1062.91+663.557+1061.55+667.979+1058.83+670.905C1056.11+673.831+1052.64+675.295+1048.43+675.295C1044.15+675.295+1040.68+673.848+1038.02+670.954C1035.37+668.06+1034.04+663.622+1034.04+657.64Z" opacity="1" fill="#ffffff"/>
</g>
</g>
</svg>
